<svg width="33" height="29" viewBox="0 0 33 29" fill="none" xmlns="http://www.w3.org/2000/svg">
<g opacity="0.7">
<path d="M28.6265 3.37558V22.0083H26.6301V25.1938L23.1446 21.9756H4.62646V3.37558H28.6265ZM6.67737 12.2065C7.57737 12.2065 8.41737 12.2119 9.26283 12.2065C10.501 12.1956 11.461 11.3665 11.521 9.95376C11.5592 9.11376 11.5537 8.26831 11.521 7.42831C11.4665 6.01558 10.5392 5.1374 9.13192 5.1374H7.06465C6.93374 5.1374 6.80283 5.15376 6.66646 5.16467V12.2065H6.67737ZM15.2028 5.14831L12.6119 12.1956H13.441L14.0028 10.6465H17.0628L17.641 12.2065H18.4592L15.8737 5.14831H15.2028ZM21.361 15.0701L19.1683 17.5792V12.9101H18.481V19.9192H19.1792V18.5556L20.1392 17.4865C20.6737 18.3483 21.1756 19.1447 21.6556 19.9192H22.5719L20.6465 16.9356L22.2828 15.0756H21.361V15.0701ZM13.8556 19.9247V16.5156C13.8501 16.4119 13.8337 16.3083 13.8119 16.2101C13.7792 15.9701 13.681 15.7465 13.5283 15.561C13.3756 15.3756 13.1683 15.2392 12.9392 15.1629C12.3065 14.9229 11.6137 14.9065 10.9646 15.1083C10.6156 15.2065 10.321 15.4356 10.141 15.7465L10.6483 16.2101C10.9756 15.7301 11.4392 15.6265 11.9628 15.6483C12.8137 15.681 13.0865 15.9592 13.081 16.821V17.1483C12.6228 17.1483 12.2137 17.1374 11.8046 17.1483C11.5156 17.1483 11.221 17.1865 10.9374 17.2519C10.2719 17.421 9.93919 17.9065 9.9501 18.6265C9.96101 19.3029 10.3156 19.7774 10.9592 19.941C11.6846 20.1265 12.3883 20.0774 13.0374 19.6247L13.1192 19.9356H13.8446L13.8556 19.9247ZM7.26646 15.6156V16.1829C7.26646 17.0447 7.27737 17.9065 7.26646 18.7683C7.25556 19.3629 7.77374 19.9847 8.43919 19.941C8.62465 19.9301 8.8101 19.941 9.00646 19.941V19.3247C8.96283 19.3138 8.91919 19.3083 8.87556 19.3083C8.12283 19.2919 7.99737 19.1665 7.99192 18.3865C7.99192 17.5792 7.99192 16.7665 7.99192 15.9538C7.99192 15.8392 8.01374 15.7247 8.02465 15.5774H9.04465L9.01192 15.0156H7.98646V13.5429H7.2501V15.0319L6.66646 15.0647V15.5774L7.26101 15.6156H7.26646ZM15.4537 12.8992V18.4138C15.4483 18.5665 15.4537 18.7247 15.4646 18.8774C15.5356 19.4447 15.8792 19.8538 16.3756 19.9192C16.6483 19.9356 16.9265 19.941 17.1992 19.9247V19.3083H16.8337C16.3865 19.2919 16.2174 19.1283 16.1846 18.681C16.1737 18.561 16.1846 18.441 16.1846 18.321V12.8992H15.4483H15.4537Z" fill="#2F2723"/>
<path d="M6.67188 12.2065V5.16466C6.80278 5.15375 6.93369 5.13739 7.07006 5.13739H9.13733C10.5446 5.13739 11.4664 6.01012 11.5264 7.4283C11.5591 8.2683 11.5646 9.11375 11.5264 9.95375C11.461 11.3665 10.501 12.1956 9.26824 12.2065C8.41733 12.2119 7.57733 12.2065 6.67733 12.2065H6.67188ZM7.41915 5.85739C7.32642 7.29739 7.3646 11.1428 7.47915 11.541C7.99188 11.541 8.5046 11.5683 9.02278 11.541C9.96642 11.481 10.6101 11.0719 10.7082 10.0247C10.7628 9.51194 10.7846 8.99921 10.7846 8.48103C10.7846 8.01739 10.7519 7.55375 10.681 7.09557C10.5773 6.43012 10.0428 5.90648 9.39915 5.8683C8.76097 5.83012 8.09551 5.8683 7.41369 5.8683L7.41915 5.85739Z" fill="#E9E9E9"/>
<path d="M24.3719 10.341C24.2192 11.4101 23.5319 12.0156 22.5228 12.2283C21.5901 12.4192 20.7501 12.1901 20.0846 11.4592C19.7356 11.072 19.5392 10.5701 19.5392 10.0465C19.5283 9.03195 19.5337 8.01741 19.5937 7.00831C19.6646 5.88468 20.761 4.99559 22.1028 5.05559C22.9101 5.09377 23.5974 5.4265 24.061 6.13013C24.3065 6.52831 24.4428 6.98104 24.4428 7.45013C24.4592 7.86468 24.4428 9.79559 24.3719 10.3356V10.341ZM23.7283 8.64468C23.6956 8.19741 23.6519 7.73922 23.6356 7.27559C23.6028 6.44104 22.8665 5.78104 22.0374 5.75922C21.1537 5.74286 20.4174 6.34286 20.3356 7.21559C20.2428 8.17559 20.2428 9.14104 20.3356 10.0956C20.4337 11.121 21.2628 11.5956 22.0156 11.5683C22.9319 11.5356 23.5646 10.9683 23.641 10.0465C23.6792 9.58831 23.701 9.12468 23.7337 8.63922L23.7283 8.64468Z" fill="#E9E9E9"/>
<path d="M15.1974 5.14832H15.8737L18.4592 12.2065H17.641L17.0628 10.6465H13.9974L13.4355 12.1956H12.6064L15.1974 5.14832ZM15.5901 6.3865H15.4919L14.2374 9.93195H16.8337C16.4083 8.72104 15.9992 7.55377 15.5846 6.3865H15.5901Z" fill="#E9E9E9"/>
<path d="M21.3611 15.0755H22.2829L20.6466 16.941L22.572 19.9246H21.6611C21.1811 19.1555 20.6848 18.3592 20.1448 17.4919L19.1848 18.561V19.9246H18.4866V12.9155H19.1738V17.5846L21.3611 15.0755Z" fill="white"/>
<path d="M13.8555 19.9301H13.13L13.0482 19.6192C12.4046 20.0774 11.6955 20.121 10.97 19.9355C10.3264 19.7719 9.97187 19.3028 9.96096 18.621C9.95005 17.8955 10.2773 17.4155 10.9482 17.2464C11.2319 17.181 11.521 17.1483 11.8155 17.1428C12.2246 17.1264 12.6337 17.1428 13.0919 17.1428V16.8155C13.0919 15.9537 12.8191 15.6755 11.9737 15.6428C11.4446 15.621 10.981 15.7301 10.6591 16.2046L10.1519 15.741C10.3319 15.4301 10.6264 15.201 10.9755 15.1028C11.6191 14.901 12.3173 14.9228 12.95 15.1574C13.1791 15.2337 13.381 15.3701 13.5391 15.5555C13.6919 15.741 13.79 15.9701 13.8228 16.2101C13.8446 16.3083 13.861 16.4119 13.8664 16.5155C13.8664 17.6283 13.8664 18.7464 13.8664 19.9192L13.8555 19.9301ZM13.0864 17.7046C12.6828 17.7046 12.3391 17.6937 12.001 17.7046C11.7446 17.7046 11.4882 17.7264 11.2373 17.781C10.8937 17.8628 10.7082 18.1355 10.6864 18.4955C10.6646 18.8937 10.8064 19.1719 11.1282 19.281C11.581 19.4446 12.0828 19.4392 12.53 19.2646C12.8791 19.1283 13.0864 18.8774 13.0864 18.4846C13.0864 18.2501 13.0864 18.0101 13.0864 17.7101V17.7046Z" fill="white"/>
<path d="M7.27179 15.621L6.67725 15.5828V15.0701L7.26088 15.0374V13.5483H7.99725V15.021H9.0227L9.05543 15.5828H8.03543C8.01906 15.7356 8.0027 15.8501 8.0027 15.9592C8.0027 16.7665 8.0027 17.5792 8.0027 18.3919C8.0027 19.1665 8.13361 19.2919 8.88634 19.3137C8.92997 19.3137 8.97361 19.3247 9.01725 19.3301V19.9465C8.82088 19.9465 8.63543 19.9356 8.44997 19.9465C7.78452 19.9847 7.26634 19.3683 7.27725 18.7737C7.28816 17.9119 7.27725 17.0501 7.27725 16.1883V15.621H7.27179Z" fill="white"/>
<path d="M15.4536 12.9101H16.19V18.3319C16.19 18.4519 16.1845 18.5719 16.19 18.6919C16.2227 19.1337 16.3918 19.2919 16.8391 19.3192C16.9536 19.3192 17.0682 19.3192 17.2045 19.3192V19.9355C16.9318 19.9519 16.6536 19.9464 16.3809 19.9301C15.8845 19.8701 15.5409 19.461 15.47 18.8883C15.4591 18.7355 15.4536 18.5774 15.4591 18.4246V12.9101H15.4536Z" fill="white"/>
<path d="M7.42473 5.86284C8.10655 5.86284 8.75564 5.83011 9.40473 5.87375C10.0538 5.91193 10.5775 6.43557 10.6865 7.10102C10.7575 7.5592 10.7902 8.02284 10.7902 8.48648C10.7902 8.9992 10.7629 9.51739 10.7138 10.0301C10.6102 11.0774 9.972 11.4865 9.02837 11.5465C8.51018 11.5792 7.99746 11.5465 7.48473 11.5465C7.37564 11.1483 7.332 7.30284 7.43018 5.86284H7.42473Z" fill="#2F2723"/>
<path d="M23.7285 8.64464C23.6957 9.1301 23.6739 9.58828 23.6357 10.0519C23.5594 10.9737 22.9212 11.541 22.0103 11.5737C21.263 11.601 20.4285 11.121 20.3303 10.101C20.2376 9.14101 20.2376 8.17555 20.3303 7.22101C20.4121 6.34283 21.1485 5.74283 22.0321 5.76464C22.8612 5.78101 23.5976 6.44646 23.6303 7.28101C23.6521 7.73919 23.6957 8.20283 23.7285 8.6501V8.64464Z" fill="#2F2723"/>
<path d="M15.5956 6.39197C16.0047 7.55924 16.4137 8.72651 16.8447 9.94288H14.2483L15.5028 6.39742H15.601L15.5956 6.39197Z" fill="#2F2723"/>
<path d="M13.0865 17.7047V18.4792C13.0865 18.8719 12.8792 19.1229 12.5301 19.2592C12.0774 19.4338 11.581 19.4392 11.1283 19.2756C10.8065 19.1719 10.6647 18.8938 10.6865 18.4901C10.7083 18.1301 10.8938 17.8574 11.2374 17.7756C11.4883 17.7265 11.7447 17.6992 12.001 17.6992C12.3392 17.6883 12.6829 17.6992 13.0865 17.6992V17.7047Z" fill="#2F2723"/>
</g>
</svg>
