<svg width="33" height="29" viewBox="0 0 33 29" fill="none" xmlns="http://www.w3.org/2000/svg">
<path opacity="0.7" d="M20.1743 4.98095L19.8612 5.33563C23.6439 6.48617 25.4004 8.1471 25.4004 8.1471C20.1134 5.26642 13.9047 5.26642 8.77429 7.50695C7.9482 7.88758 7.46125 8.1471 7.46125 8.1471C7.46125 8.1471 9.30473 6.39966 13.3134 5.24912L13.0873 4.98095C13.0873 4.98095 10.0352 4.91174 6.83516 7.30799C6.83516 7.30799 3.62646 13.0866 3.62646 20.2148C3.62646 20.2148 5.49603 23.4242 10.4178 23.5799C10.4178 23.5799 11.2439 22.5851 11.9134 21.746C9.08733 20.9069 8.01777 19.1335 8.01777 19.1335C8.3482 19.3584 8.88733 19.6612 8.93081 19.6871C12.6873 21.7806 18.0265 22.464 22.8178 20.4657C23.6004 20.1802 24.4612 19.7563 25.3743 19.1594C25.3743 19.1594 24.2612 20.9761 21.3482 21.7979C22.0178 22.637 22.8178 23.5886 22.8178 23.5886C27.7395 23.4329 29.6265 20.2235 29.6265 20.2235C29.6265 13.0953 26.4178 7.31664 26.4178 7.31664C23.2265 4.91174 20.1743 4.98095 20.1743 4.98095ZM12.4786 18.156C11.2352 18.156 10.2091 17.0487 10.2091 15.6992C10.2091 14.3497 11.2091 13.2424 12.4786 13.2424C13.7482 13.2424 14.7743 14.3497 14.7482 15.6992C14.7482 17.0487 13.7482 18.156 12.4786 18.156ZM20.6004 18.156C19.3569 18.156 18.3308 17.0487 18.3308 15.6992C18.3308 14.3497 19.3308 13.2424 20.6004 13.2424C21.8699 13.2424 22.8699 14.3497 22.8699 15.6992C22.8699 17.0487 21.8699 18.156 20.6004 18.156Z" fill="#2F2723"/>
</svg>
