<svg width="33" height="29" viewBox="0 0 33 29" fill="none" xmlns="http://www.w3.org/2000/svg">
<g opacity="0.7">
<path d="M14.9375 24.4406C14.9375 25.0183 14.4931 25.4628 13.9153 25.4628C13.3375 25.4628 12.8931 25.0183 12.8931 24.4406C12.8931 23.8628 13.3375 23.4183 13.9153 23.4183C14.4931 23.4183 14.9375 23.8628 14.9375 24.4406Z" fill="#2F2723"/>
<path d="M21.3374 24.4406C21.3374 25.0183 20.893 25.4628 20.3152 25.4628C19.7374 25.4628 19.293 25.0183 19.293 24.4406C19.293 23.8628 19.7374 23.4183 20.3152 23.4183C20.893 23.4183 21.3374 23.8628 21.3374 24.4406Z" fill="#2F2723"/>
<path d="M11.163 4.81238L11.1082 5.69958L11.9954 5.75447L12.0502 4.86727L11.163 4.81238Z" fill="#2F2723"/>
<path d="M26.6265 15.018C26.5376 14.8847 26.4931 14.7958 26.4042 14.6624C26.3154 14.5291 26.2265 14.3958 26.0931 14.3069C26.0487 14.2624 26.0487 14.218 26.0042 14.1736C25.9154 14.0847 25.8265 13.9513 25.7376 13.8624C25.6931 13.7736 25.6042 13.7291 25.5154 13.6402C25.4265 13.5513 25.3376 13.4624 25.2931 13.3736L25.2487 13.3291C25.2042 13.2847 25.1154 13.1958 25.0709 13.1513C24.982 13.0624 24.8931 12.9736 24.7598 12.8402C24.0042 12.1291 23.1598 11.5513 22.2709 11.0624H22.2265C22.0042 10.9291 21.782 10.8402 21.5598 10.7513C21.2487 10.618 20.8931 10.4847 20.582 10.3513C20.5376 10.3513 20.5376 10.3513 20.4931 10.3069C20.4931 10.2624 20.5376 10.2624 20.5376 10.218C20.982 9.06245 20.9376 7.818 20.4042 6.70689C19.8709 5.59578 18.9376 4.75133 17.782 4.35133C17.0709 4.12911 16.4487 3.99578 15.9154 4.04022C15.8709 3.90689 15.8265 3.418 16.4487 2.04022L15.1598 1.28467L14.8487 1.72911C14.4931 2.218 14.182 2.70689 13.8265 3.15133C13.4709 2.79578 12.982 2.57356 12.4931 2.52911L10.982 2.44022C10.9376 2.44022 10.8931 2.44022 10.8487 2.44022C9.78202 2.44022 8.89313 3.28467 8.80424 4.35133L8.71535 5.86245C8.67091 6.97356 9.51535 7.95133 10.6265 7.99578L11.6931 8.08467C11.6042 8.97356 11.782 9.86245 12.1376 10.5736C10.6709 11.1958 9.33758 12.0847 8.18202 13.2847C4.62646 16.8847 4.62646 20.8402 4.62646 24.0402V25.9513L6.04869 24.4402C6.31535 25.418 6.71535 26.3958 7.29313 27.2847H9.11535C8.18202 26.0402 7.5598 24.618 7.29313 23.1069L9.33758 20.9291L8.27091 24.2624L10.1376 22.8847C13.4709 20.4847 17.4265 19.9069 21.9598 21.2402C23.9154 21.818 25.8265 21.2847 26.8042 19.8624C26.8487 19.818 26.8931 19.7736 26.8931 19.6847C26.982 20.218 27.0709 20.7513 27.0709 21.2847C27.0709 22.9736 26.8042 25.2847 25.5598 27.2402H27.3376C28.182 25.5513 28.6265 23.5069 28.6265 21.2847C28.6265 19.1513 27.9154 16.9291 26.6265 15.018ZM14.6709 4.92911C14.9376 5.37356 15.4265 5.59578 15.9598 5.59578C16.182 5.59578 16.6265 5.64022 17.2931 5.86245C18.0487 6.12911 18.6709 6.66245 19.0265 7.418C19.382 8.17356 19.4265 8.97356 19.1154 9.72911C18.9376 10.218 18.6265 10.618 18.2265 10.9291L17.782 10.3958C17.4709 10.0402 17.0265 9.818 16.5376 9.818C16.182 9.818 15.8265 9.95133 15.5154 10.1736C15.1598 10.4847 14.982 10.8847 14.9376 11.3291C13.6487 10.7513 12.982 9.55134 13.1598 8.04022C13.2931 6.97356 13.782 5.90689 14.4931 4.84022C14.6265 4.84022 14.6709 4.88467 14.6709 4.92911ZM17.9154 13.5513L17.3376 13.9958C17.2931 14.0402 17.2487 14.0402 17.1598 14.0402C17.0709 14.0402 17.0265 13.9958 16.982 13.9513L16.8931 13.818C16.8042 13.7291 16.8042 13.5513 16.9376 13.4624L17.5154 13.018L16.3598 11.5958C16.2265 11.4624 16.2709 11.2402 16.4042 11.1069C16.4487 11.0624 16.5376 11.018 16.6265 11.018C16.7154 11.018 16.8042 11.0624 16.8931 11.1513L20.0931 15.1069C20.2265 15.2402 20.182 15.4624 20.0487 15.5958C20.0042 15.6402 19.9598 15.6402 19.9154 15.6847C19.8709 15.6847 19.8709 15.6847 19.8265 15.6847C19.7376 15.6847 19.6487 15.6402 19.5598 15.5513L19.2487 15.1513L18.0931 16.0847C18.0487 16.1291 18.0042 16.1291 17.9154 16.1291C17.8265 16.1291 17.782 16.0847 17.6931 16.0402L17.1598 15.418C17.0709 15.3291 17.0709 15.1513 17.2042 15.0624L18.3598 14.1291L17.9154 13.5513ZM15.1154 11.9069C15.1154 11.8624 15.1154 11.8624 15.0709 11.818C15.1154 11.8624 15.1154 11.9069 15.1154 11.9069ZM10.2709 5.95134L10.3598 4.44022C10.3598 4.17356 10.582 3.95133 10.8487 3.95133C10.8487 3.95133 10.8487 3.95133 10.8931 3.95133L12.4042 4.04022C12.6709 4.04022 12.8931 4.30689 12.8931 4.57356V4.66245C12.5376 5.28467 12.2709 5.90689 12.0487 6.52911L10.7598 6.44022C10.4487 6.48467 10.2265 6.218 10.2709 5.95134ZM25.6042 19.018C24.982 19.9069 23.782 20.1736 22.4487 19.7736C18.2265 18.5291 14.4487 18.7958 11.1154 20.5291L12.8931 14.9736L6.22646 22.0847C6.31535 19.5513 6.84869 16.8402 9.33758 14.3513C10.4487 13.2402 11.7376 12.3958 13.1598 11.8624C13.7376 12.3958 14.4042 12.7513 15.2487 13.018C15.4265 13.0624 15.6042 13.1069 15.782 13.1069C15.5598 13.5958 15.6487 14.1736 16.0042 14.618L16.0931 14.7069C15.9154 15.1958 15.9598 15.7736 16.3154 16.218L16.8487 16.8402C17.1154 17.1958 17.5598 17.418 18.0042 17.3736C18.3598 17.3736 18.6709 17.2402 18.9376 17.018L19.2487 16.7513C19.4265 16.8402 19.6487 16.8847 19.8709 16.8847C20.0042 16.8847 20.0931 16.8847 20.2265 16.8402C20.4487 16.7958 20.6709 16.6624 20.8931 16.5291C21.5598 15.9958 21.6487 14.9736 21.1154 14.3069L18.7598 11.418L19.311 12.094C19.4888 11.9607 19.6487 11.818 19.782 11.6402C20.0042 11.6847 20.182 11.7736 20.4042 11.818C20.4487 11.818 20.4899 11.8394 20.582 11.8624C20.7598 11.9069 20.9376 11.9958 21.0709 12.0847C21.0709 12.0847 21.0709 12.0847 21.1154 12.0847C21.2931 12.1736 21.4709 12.2624 21.6487 12.3513C21.6931 12.3958 21.782 12.4402 21.8265 12.4402C21.9598 12.5291 22.0931 12.5736 22.2265 12.6624C22.3154 12.7069 22.3598 12.7513 22.4487 12.7958C22.5376 12.8847 22.6709 12.9291 22.7598 13.018C22.8487 13.1069 22.9376 13.1513 23.0265 13.2402C23.1154 13.2847 23.2042 13.3736 23.2487 13.418C23.382 13.5069 23.5154 13.6402 23.6487 13.7291C23.6931 13.7736 23.7376 13.7736 23.782 13.818C23.9598 13.9513 24.0931 14.1291 24.2709 14.2624C24.7154 14.7069 25.0709 15.1513 25.4265 15.6847C26.0931 16.9736 26.182 18.1736 25.6042 19.018Z" fill="#2F2723"/>
</g>
</svg>
