<svg width="241" height="241" viewBox="0 0 241 241" fill="none" xmlns="http://www.w3.org/2000/svg">
<mask id="mask0_1185_30375" style="mask-type:alpha" maskUnits="userSpaceOnUse" x="29" y="21" width="188" height="164">
<path d="M126.157 62.2612H214.278L190.558 22.3243H30.2108V183.298H124.843L106.192 170.193V85.0139H117.571L126.157 62.2612Z" fill="#C4C4C4" stroke="#FF782D" stroke-width="2"/>
</mask>
<g mask="url(#mask0_1185_30375)">
<path d="M35.5371 182.099H92.0495V151.268M65.6771 161.796V136.98H122.19M110.134 166.308H153.083M173.427 179.092V124.196M173.427 117.428V104.645M190.758 30.1976H41.5651M41.5651 47.4934H115.408V92.6127M138.013 117.428V47.4934H178.702M159.864 84.3409H183.223M190.758 189.619H134.245M92.0495 73.061H41.5651M70.1981 84.3409V114.42H115.408" stroke="#CBB9FF" stroke-width="2" stroke-linecap="round" stroke-linejoin="round"/>
</g>
<path d="M43.9883 14.599H22.4374V35.339" stroke="#FF782D" stroke-width="2"/>
<path d="M204.224 36.4735L204.224 14.9658L183.442 14.9658" stroke="#FF782D" stroke-width="2"/>
<path d="M22.0698 174.513L22.0698 196.021L42.8514 196.021" stroke="#FF782D" stroke-width="2"/>
<rect x="127.246" y="72.6265" width="89.8239" height="153.249" rx="3.25" stroke="#CBB9FF" stroke-width="2"/>
<path d="M149.029 72.6265H195.287V78.2411C195.287 80.036 193.832 81.4911 192.037 81.4911H152.279C150.484 81.4911 149.029 80.036 149.029 78.2411V72.6265Z" stroke="#CBB9FF" stroke-width="2"/>
<path d="M149.369 118.271H142.267V125.106" stroke="#FF782D" stroke-width="2"/>
<path d="M194.948 178.175L202.049 178.175L202.049 171.34" stroke="#FF782D" stroke-width="2"/>
<path d="M202.17 125.479L202.17 118.392L195.322 118.392" stroke="#FF782D" stroke-width="2"/>
<path d="M142.146 170.967L142.146 178.054L148.994 178.054" stroke="#FF782D" stroke-width="2"/>
<path d="M182.151 135.34C182.326 135.382 182.309 135.298 181.986 135.02L181.993 135.024L185.202 130.8L187.699 126.814C187.753 126.721 187.738 126.604 187.649 126.527L187.313 126.259C187.22 126.189 187.097 126.201 187.018 126.28L185.645 127.79L187.161 124.493C187.208 124.396 187.171 124.275 187.071 124.217L186.409 123.836C186.309 123.778 186.175 123.809 186.117 123.909C185.766 124.487 184.624 126.346 183.803 127.577C182.603 129.378 180.835 131.715 179.686 133.197C179.756 131.235 180.704 127.178 181.208 125.184C181.23 125.147 181.219 124.908 181.087 124.832C180.925 124.739 180.536 124.706 180.347 124.688C180.199 124.669 180.1 124.87 180.075 124.971L177.57 132.467C177.57 132.467 177.596 132.507 177.611 132.524C177.263 132.407 177.197 132.435 177.315 132.562C178.08 132.794 178.793 133.13 179.398 133.479C180.217 133.876 181.236 134.505 182.149 135.33L182.151 135.34Z" fill="#FF782D"/>
<path d="M183.852 142.243C185.271 139.314 183.922 136.941 182.151 135.34C181.238 134.515 180.214 133.883 179.401 133.489C178.789 133.136 178.082 132.804 177.318 132.571C175.209 131.929 172.704 132.056 170.865 134.76C166.234 141.571 157.978 164.13 157.757 166.744C157.666 167.822 157.57 170.117 158.702 170.736L158.714 170.744C159.845 171.379 161.762 170.182 162.651 169.564C164.809 168.066 180.257 149.651 183.852 142.243V142.243Z" stroke="#FF782D" stroke-width="1.275" stroke-miterlimit="10"/>
<path d="M168.161 140.471L172.388 142.907" stroke="#FF782D" stroke-width="1.275" stroke-linecap="round" stroke-linejoin="round"/>
<path d="M166.957 142.552L169.092 143.783" stroke="#FF782D" stroke-width="1.275" stroke-linecap="round" stroke-linejoin="round"/>
<path d="M166.074 144.827L169.976 147.076" stroke="#FF782D" stroke-width="1.275" stroke-linecap="round" stroke-linejoin="round"/>
<path d="M164.87 146.908L166.681 147.951" stroke="#FF782D" stroke-width="1.275" stroke-linecap="round" stroke-linejoin="round"/>
<path d="M163.941 149.147L167.568 151.238" stroke="#FF782D" stroke-width="1.275" stroke-linecap="round" stroke-linejoin="round"/>
<path d="M163.033 151.407L164.269 152.12" stroke="#FF782D" stroke-width="1.275" stroke-linecap="round" stroke-linejoin="round"/>
<path d="M162.16 153.679L165.157 155.406" stroke="#FF782D" stroke-width="1.275" stroke-linecap="round" stroke-linejoin="round"/>
<path d="M161.283 155.957L161.858 156.288" stroke="#FF782D" stroke-width="1.275" stroke-linecap="round" stroke-linejoin="round"/>
</svg>
