<svg width="241" height="241" viewBox="0 0 241 241" fill="none" xmlns="http://www.w3.org/2000/svg">
<path d="M120.07 97.3774V112.497C120.07 115.301 118.127 117.732 115.392 118.35L58.3196 131.241C51.9267 132.685 52.1479 141.868 58.6029 143.003L177.359 163.876C183.974 165.038 183.974 174.532 177.359 175.694L62.7804 195.833C56.1652 196.996 56.1652 206.489 62.7803 207.652L179.082 228.093" stroke="url(#paint0_linear_1185_30391)" stroke-width="2" stroke-linejoin="round"/>
<path d="M64.2174 137.128C64.2174 139.529 62.2925 141.458 59.9382 141.458C57.5839 141.458 55.6591 139.529 55.6591 137.128C55.6591 134.728 57.5839 132.798 59.9382 132.798C62.2925 132.798 64.2174 134.728 64.2174 137.128Z" fill="#CBB9FF" stroke="#CBB9FF" stroke-width="2"/>
<path d="M68.3739 201.686C68.3739 204.092 66.4583 206.016 64.129 206.016C61.7998 206.016 59.8842 204.092 59.8842 201.686C59.8842 199.279 61.7998 197.355 64.129 197.355C66.4583 197.355 68.3739 199.279 68.3739 201.686Z" fill="#CBB9FF" stroke="#CBB9FF" stroke-width="2"/>
<path d="M180.135 169.805C180.135 172.205 178.21 174.135 175.856 174.135C173.502 174.135 171.577 172.205 171.577 169.805C171.577 167.404 173.502 165.475 175.856 165.475C178.21 165.475 180.135 167.404 180.135 169.805Z" fill="#CBB9FF" stroke="#CBB9FF" stroke-width="2"/>
<path d="M71.7651 64.5664H168.259" stroke="#CBB9FF" stroke-width="2"/>
<path d="M120.012 113.279L120.012 15.8535" stroke="#CBB9FF" stroke-width="2"/>
<path d="M85.896 99.0117L154.127 30.1218" stroke="#CBB9FF" stroke-width="2"/>
<path d="M154.128 99.0117L85.8967 30.1218" stroke="#CBB9FF" stroke-width="2"/>
<rect width="72.9728" height="72.9728" rx="36.4864" transform="matrix(0.703702 -0.710495 0.703702 0.710495 69.0317 64.9397)" fill="#FBFCFC"/>
<rect width="43.024" height="43.024" rx="6" transform="matrix(0.703702 -0.710495 0.703702 0.710495 90.1069 64.9397)" stroke="#CBB9FF" stroke-width="2"/>
<defs>
<linearGradient id="paint0_linear_1185_30391" x1="120.07" y1="97.3774" x2="120.07" y2="228.093" gradientUnits="userSpaceOnUse">
<stop stop-color="#CBB9FF"/>
<stop offset="1" stop-color="#FFDB4F"/>
</linearGradient>
</defs>
</svg>
