<svg width="241" height="241" viewBox="0 0 241 241" fill="none" xmlns="http://www.w3.org/2000/svg">
<path d="M154.22 46.6301C154.754 46.4871 155.07 45.9388 154.927 45.4053L152.598 36.712C152.455 36.1785 151.907 35.862 151.373 36.0049C150.84 36.1478 150.523 36.6962 150.666 37.2296L152.737 44.957L145.009 47.0276C144.476 47.1705 144.159 47.7189 144.302 48.2523C144.445 48.7858 144.994 49.1024 145.527 48.9595L154.22 46.6301ZM43.3696 75.2972L44.2356 75.7972L43.3696 75.2972ZM154.462 44.7981C145.141 39.4166 134.851 35.9237 124.18 34.5189L123.919 36.5018C134.329 37.8723 144.368 41.28 153.462 46.5302L154.462 44.7981ZM124.18 34.5189C113.509 33.114 102.666 33.8247 92.2695 36.6104L92.7872 38.5423C102.93 35.8246 113.508 35.1312 123.919 36.5018L124.18 34.5189ZM92.2695 36.6104C81.8733 39.3961 72.1275 44.2022 63.5886 50.7543L64.8062 52.341C73.1367 45.9487 82.6446 41.2599 92.7872 38.5423L92.2695 36.6104ZM63.5886 50.7543C55.0498 57.3064 47.8851 65.4762 42.5036 74.7972L44.2356 75.7972C49.4858 66.7036 56.4757 58.7332 64.8062 52.341L63.5886 50.7543ZM42.5036 74.7972C37.1221 84.1182 33.6292 94.4079 32.2243 105.079L34.2072 105.34C35.5778 94.9294 38.9854 84.8908 44.2356 75.7972L42.5036 74.7972ZM32.2243 105.079C30.8195 115.75 31.5302 126.593 34.3158 136.989L36.2477 136.472C33.53 126.329 32.8366 115.75 34.2072 105.34L32.2243 105.079ZM34.3158 136.989C37.1015 147.385 41.9076 157.131 48.4597 165.67L50.0464 164.453C43.6542 156.122 38.9654 146.614 36.2477 136.472L34.3158 136.989ZM48.4597 165.67C55.0118 174.209 63.1816 181.374 72.5026 186.755L73.5026 185.023C64.4091 179.773 56.4386 172.783 50.0464 164.453L48.4597 165.67Z" fill="url(#paint0_linear_1185_30399)"/>
<path opacity="0.6" d="M79.8766 189.825C79.3351 189.933 78.9838 190.46 79.0922 191.002L80.8573 199.827C80.9656 200.368 81.4924 200.719 82.034 200.611C82.5756 200.503 82.9268 199.976 82.8185 199.434L81.2494 191.59L89.0941 190.021C89.6356 189.913 89.9868 189.386 89.8785 188.844C89.7702 188.303 89.2434 187.951 88.7018 188.06L79.8766 189.825ZM192.342 168.35L191.51 167.795L192.342 168.35ZM79.518 191.637C88.4735 197.608 98.5171 201.755 109.076 203.844L109.464 201.882C99.1629 199.844 89.3643 195.798 80.6274 189.973L79.518 191.637ZM109.076 203.844C119.634 205.933 130.5 205.921 141.054 203.81L140.662 201.849C130.366 203.908 119.764 203.92 109.464 201.882L109.076 203.844ZM141.054 203.81C151.608 201.699 161.643 197.53 170.586 191.541L169.473 189.879C160.748 195.722 150.958 199.79 140.662 201.849L141.054 203.81ZM170.586 191.541C179.529 185.552 187.204 177.86 193.174 168.905L191.51 167.795C185.686 176.532 178.198 184.037 169.473 189.879L170.586 191.541ZM193.174 168.905C199.145 159.949 203.292 149.906 205.381 139.347L203.419 138.959C201.381 149.26 197.335 159.059 191.51 167.795L193.174 168.905ZM205.381 139.347C207.469 128.789 207.458 117.923 205.347 107.369L203.386 107.761C205.445 118.057 205.457 128.659 203.419 138.959L205.381 139.347ZM205.347 107.369C203.236 96.8147 199.067 86.7798 193.078 77.837L191.416 78.9499C197.259 87.6745 201.327 97.4645 203.386 107.761L205.347 107.369ZM193.078 77.837C187.089 68.8943 179.397 61.2187 170.442 55.2485L169.332 56.9127C178.069 62.7371 185.573 70.2254 191.416 78.9499L193.078 77.837Z" fill="url(#paint1_linear_1185_30399)"/>
<circle cx="70.3422" cy="183.769" r="5.05993" fill="#FAC703" stroke="#FF782D"/>
<circle cx="166.482" cy="53.4759" r="5.05993" fill="#FF782D" stroke="#FAC703"/>
<path d="M72.2749 119.981H167.781" stroke="#FF782D" stroke-width="2"/>
<path d="M120.028 167.734L120.028 72.2279" stroke="#FF782D" stroke-width="2"/>
<path d="M86.2612 153.748L153.794 86.2147" stroke="#FF782D" stroke-width="2"/>
<path d="M153.794 153.748L86.2611 86.2147" stroke="#FF782D" stroke-width="2"/>
<path d="M119.712 81.083L153.125 100.058V138.007L119.712 156.982L86.2989 138.007V100.058L119.712 81.083Z" fill="#FDFDFD" stroke="#FBC804" stroke-width="2"/>
<path d="M119.711 88.6731L146.551 104.169V135.161L119.711 150.657L92.8714 135.161V104.169L119.711 88.6731Z" fill="#FDFDFD" stroke="#FBC804" stroke-width="2"/>
<defs>
<linearGradient id="paint0_linear_1185_30399" x1="149.614" y1="41.5709" x2="64.6916" y2="180.396" gradientUnits="userSpaceOnUse">
<stop stop-color="#FBC804"/>
<stop offset="1" stop-color="#FF782D"/>
</linearGradient>
<linearGradient id="paint1_linear_1185_30399" x1="84.1479" y1="195.17" x2="177.827" y2="62.0971" gradientUnits="userSpaceOnUse">
<stop stop-color="#FF782D"/>
<stop offset="1" stop-color="#FBC804"/>
</linearGradient>
</defs>
</svg>
